<svg width="44" height="44" viewBox="0 0 44 44" fill="none" xmlns="http://www.w3.org/2000/svg">
<rect x="0.916626" width="43.0833" height="44" rx="15" fill="#D9D9D9"/>
<path d="M33.2291 28.7247V26.6927H16.3548L17.4319 24.6607L33.9472 22.9982L36.8194 11.9149H14.7392L13.4826 6.37317H8.09717V8.2204H12.0465L15.8163 23.7371L13.4826 28.5399V31.3108C13.4826 32.7886 14.7392 34.0816 16.1753 34.0816C17.6114 34.0816 18.868 32.7886 18.868 31.3108C18.868 29.833 17.6114 28.5399 16.1753 28.5399H29.6388V31.3108C29.6388 32.7886 30.8954 34.0816 32.3315 34.0816C33.7677 34.0816 35.0243 32.7886 35.0243 31.3108C35.0243 30.0177 34.3062 29.0941 33.2291 28.7247ZM15.2777 13.7621H34.4857L32.5111 21.151L17.4319 22.8135L15.2777 13.7621Z" fill="black"/>
</svg>
